# Blender v2.79 (sub 0) OBJ File: 'rackpoly.blend'
# www.blender.org
mtllib rackpoly.mtl
o model
v 0.499188 -0.828125 -0.420000
v 0.499188 -0.828125 0.420000
v 0.499188 -0.878125 0.420000
v 0.499188 -0.878125 -0.420000
v -0.501813 -0.878125 0.420000
v -0.501813 -0.828125 0.420000
v -0.501813 -0.828125 -0.420000
v -0.501813 -0.878125 -0.420000
v 0.499188 -0.878125 0.420000
v -0.501813 -0.878125 0.420000
v -0.501813 -0.878125 -0.420000
v 0.499188 -0.878125 -0.420000
v -0.501813 -0.828125 -0.420000
v -0.501813 -0.828125 0.420000
v 0.499188 -0.828125 0.420000
v 0.499188 -0.828125 -0.420000
v -0.501813 -0.878125 -0.420000
v -0.501813 -0.828125 -0.420000
v 0.499188 -0.828125 -0.420000
v 0.499188 -0.878125 -0.420000
v 0.499188 -0.828125 0.420000
v -0.501813 -0.828125 0.420000
v -0.501813 -0.878125 0.420000
v 0.499188 -0.878125 0.420000
v 0.502687 -0.273125 -0.420000
v 0.502687 -0.273125 0.420000
v 0.502687 -0.323125 0.420000
v 0.502687 -0.323125 -0.420000
v -0.498313 -0.323125 0.420000
v -0.498313 -0.273125 0.420000
v -0.498313 -0.273125 -0.420000
v -0.498313 -0.323125 -0.420000
v 0.502687 -0.323125 0.420000
v -0.498313 -0.323125 0.420000
v -0.498313 -0.323125 -0.420000
v 0.502687 -0.323125 -0.420000
v -0.498313 -0.273125 -0.420000
v -0.498313 -0.273125 0.420000
v 0.502687 -0.273125 0.420000
v 0.502687 -0.273125 -0.420000
v -0.498313 -0.323125 -0.420000
v -0.498313 -0.273125 -0.420000
v 0.502687 -0.273125 -0.420000
v 0.502687 -0.323125 -0.420000
v 0.502687 -0.273125 0.420000
v -0.498313 -0.273125 0.420000
v -0.498313 -0.323125 0.420000
v 0.502687 -0.323125 0.420000
v 0.502687 0.836875 -0.420000
v 0.502687 0.836875 0.420000
v 0.502687 0.786875 0.420000
v 0.502687 0.786875 -0.420000
v -0.498312 0.786875 0.420000
v -0.498312 0.836875 0.420000
v -0.498312 0.836875 -0.420000
v -0.498312 0.786875 -0.420000
v 0.502687 0.786875 0.420000
v -0.498312 0.786875 0.420000
v -0.498312 0.786875 -0.420000
v 0.502687 0.786875 -0.420000
v -0.498312 0.836875 -0.420000
v -0.498312 0.836875 0.420000
v 0.502687 0.836875 0.420000
v 0.502687 0.836875 -0.420000
v -0.498312 0.786875 -0.420000
v -0.498312 0.836875 -0.420000
v 0.502687 0.836875 -0.420000
v 0.502687 0.786875 -0.420000
v 0.502687 0.836875 0.420000
v -0.498312 0.836875 0.420000
v -0.498312 0.786875 0.420000
v 0.502687 0.786875 0.420000
v 0.502687 0.286875 -0.420000
v 0.502687 0.286875 0.420000
v 0.502687 0.236875 0.420000
v 0.502687 0.236875 -0.420000
v -0.498313 0.236875 0.420000
v -0.498313 0.286875 0.420000
v -0.498313 0.286875 -0.420000
v -0.498313 0.236875 -0.420000
v 0.502687 0.236875 0.420000
v -0.498313 0.236875 0.420000
v -0.498313 0.236875 -0.420000
v 0.502687 0.236875 -0.420000
v -0.498313 0.286875 -0.420000
v -0.498313 0.286875 0.420000
v 0.502687 0.286875 0.420000
v 0.502687 0.286875 -0.420000
v -0.498313 0.236875 -0.420000
v -0.498313 0.286875 -0.420000
v 0.502687 0.286875 -0.420000
v 0.502687 0.236875 -0.420000
v 0.502687 0.286875 0.420000
v -0.498313 0.286875 0.420000
v -0.498313 0.236875 0.420000
v 0.502687 0.236875 0.420000
v 0.492188 -0.953125 0.405000
v 0.492188 -0.953125 0.285000
v 0.492188 0.996875 0.285000
v 0.492188 0.996875 0.405000
v 0.436188 0.996875 0.285000
v 0.436188 -0.953125 0.285000
v 0.436188 -0.953125 0.405000
v 0.436188 0.996875 0.405000
v 0.492188 0.996875 0.285000
v 0.436188 0.996875 0.285000
v 0.436188 0.996875 0.405000
v 0.492188 0.996875 0.405000
v 0.436188 -0.953125 0.405000
v 0.436188 -0.953125 0.285000
v 0.492188 -0.953125 0.285000
v 0.492188 -0.953125 0.405000
v 0.436188 0.996875 0.405000
v 0.436188 -0.953125 0.405000
v 0.492188 -0.953125 0.405000
v 0.492188 0.996875 0.405000
v 0.492188 -0.953125 0.285000
v 0.436188 -0.953125 0.285000
v 0.436188 0.996875 0.285000
v 0.492188 0.996875 0.285000
v -0.438812 -0.953125 -0.285000
v -0.438812 -0.953125 -0.405000
v -0.438812 0.996875 -0.405000
v -0.438812 0.996875 -0.285000
v -0.494812 0.996875 -0.405000
v -0.494812 -0.953125 -0.405000
v -0.494812 -0.953125 -0.285000
v -0.494812 0.996875 -0.285000
v -0.438812 0.996875 -0.405000
v -0.494812 0.996875 -0.405000
v -0.494812 0.996875 -0.285000
v -0.438812 0.996875 -0.285000
v -0.494812 -0.953125 -0.285000
v -0.494812 -0.953125 -0.405000
v -0.438812 -0.953125 -0.405000
v -0.438812 -0.953125 -0.285000
v -0.494812 0.996875 -0.285000
v -0.494812 -0.953125 -0.285000
v -0.438812 -0.953125 -0.285000
v -0.438812 0.996875 -0.285000
v -0.438812 -0.953125 -0.405000
v -0.494812 -0.953125 -0.405000
v -0.494812 0.996875 -0.405000
v -0.438812 0.996875 -0.405000
v -0.438812 -0.963125 0.405000
v -0.438812 -0.963125 0.285000
v -0.438812 0.986875 0.285000
v -0.438812 0.986875 0.405000
v -0.494812 0.986875 0.285000
v -0.494812 -0.963125 0.285000
v -0.494812 -0.963125 0.405000
v -0.494812 0.986875 0.405000
v -0.438812 0.986875 0.285000
v -0.494812 0.986875 0.285000
v -0.494812 0.986875 0.405000
v -0.438812 0.986875 0.405000
v -0.494812 -0.963125 0.405000
v -0.494812 -0.963125 0.285000
v -0.438812 -0.963125 0.285000
v -0.438812 -0.963125 0.405000
v -0.494812 0.986875 0.405000
v -0.494812 -0.963125 0.405000
v -0.438812 -0.963125 0.405000
v -0.438812 0.986875 0.405000
v -0.438812 -0.963125 0.285000
v -0.494812 -0.963125 0.285000
v -0.494812 0.986875 0.285000
v -0.438812 0.986875 0.285000
v 0.492188 -0.953125 -0.285000
v 0.492188 -0.953125 -0.405000
v 0.492188 0.996875 -0.405000
v 0.492188 0.996875 -0.285000
v 0.436188 0.996875 -0.405000
v 0.436188 -0.953125 -0.405000
v 0.436188 -0.953125 -0.285000
v 0.436188 0.996875 -0.285000
v 0.492188 0.996875 -0.405000
v 0.436188 0.996875 -0.405000
v 0.436188 0.996875 -0.285000
v 0.492188 0.996875 -0.285000
v 0.436188 -0.953125 -0.285000
v 0.436188 -0.953125 -0.405000
v 0.492188 -0.953125 -0.405000
v 0.492188 -0.953125 -0.285000
v 0.436188 0.996875 -0.285000
v 0.436188 -0.953125 -0.285000
v 0.492188 -0.953125 -0.285000
v 0.492188 0.996875 -0.285000
v 0.492188 -0.953125 -0.405000
v 0.436188 -0.953125 -0.405000
v 0.436188 0.996875 -0.405000
v 0.492188 0.996875 -0.405000
vn 1.0000 0.0000 0.0000
vn -1.0000 0.0000 0.0000
vn 0.0000 -1.0000 -0.0000
vn 0.0000 1.0000 0.0000
vn 0.0000 0.0000 -1.0000
vn 0.0000 0.0000 1.0000
usemtl mat18
s off
f 1//1 2//1 3//1 4//1
f 5//2 6//2 7//2 8//2
f 9//3 10//3 11//3 12//3
f 13//4 14//4 15//4 16//4
f 17//5 18//5 19//5 20//5
f 21//6 22//6 23//6 24//6
f 25//1 26//1 27//1 28//1
f 29//2 30//2 31//2 32//2
f 33//3 34//3 35//3 36//3
f 37//4 38//4 39//4 40//4
f 41//5 42//5 43//5 44//5
f 45//6 46//6 47//6 48//6
f 49//1 50//1 51//1 52//1
f 53//2 54//2 55//2 56//2
f 57//3 58//3 59//3 60//3
f 61//4 62//4 63//4 64//4
f 65//5 66//5 67//5 68//5
f 69//6 70//6 71//6 72//6
f 73//1 74//1 75//1 76//1
f 77//2 78//2 79//2 80//2
f 81//3 82//3 83//3 84//3
f 85//4 86//4 87//4 88//4
f 89//5 90//5 91//5 92//5
f 93//6 94//6 95//6 96//6
usemtl mat22
f 97//1 98//1 99//1 100//1
f 101//2 102//2 103//2 104//2
f 105//4 106//4 107//4 108//4
f 109//3 110//3 111//3 112//3
f 113//6 114//6 115//6 116//6
f 117//5 118//5 119//5 120//5
f 121//1 122//1 123//1 124//1
f 125//2 126//2 127//2 128//2
f 129//4 130//4 131//4 132//4
f 133//3 134//3 135//3 136//3
f 137//6 138//6 139//6 140//6
f 141//5 142//5 143//5 144//5
f 145//1 146//1 147//1 148//1
f 149//2 150//2 151//2 152//2
f 153//4 154//4 155//4 156//4
f 157//3 158//3 159//3 160//3
f 161//6 162//6 163//6 164//6
f 165//5 166//5 167//5 168//5
f 169//1 170//1 171//1 172//1
f 173//2 174//2 175//2 176//2
f 177//4 178//4 179//4 180//4
f 181//3 182//3 183//3 184//3
f 185//6 186//6 187//6 188//6
f 189//5 190//5 191//5 192//5
